<svg width="640" height="164" viewBox="0 0 640 164" fill="none" xmlns="http://www.w3.org/2000/svg">
<path d="M28.0827 16.1193C27.5827 16.1193 27.1325 16.0199 26.7319 15.821C26.3313 15.6222 26.0103 15.3494 25.7688 15.0028C25.5273 14.6562 25.3952 14.2614 25.3725 13.8182H26.3952C26.435 14.2131 26.614 14.5398 26.9322 14.7983C27.2532 15.054 27.6367 15.1818 28.0827 15.1818C28.4407 15.1818 28.7589 15.098 29.0373 14.9304C29.3185 14.7628 29.5387 14.5327 29.6978 14.2401C29.8597 13.9446 29.9407 13.6108 29.9407 13.2386C29.9407 12.858 29.8569 12.5185 29.6893 12.2202C29.5245 11.919 29.2972 11.6818 29.0075 11.5085C28.7177 11.3352 28.3867 11.2472 28.0146 11.2443C27.7475 11.2415 27.4734 11.2827 27.1921 11.3679C26.9109 11.4503 26.6793 11.5568 26.4975 11.6875L25.5089 11.5682L26.0373 7.27273H30.5714V8.21023H26.9237L26.6168 10.7841H26.668C26.8469 10.642 27.0714 10.5241 27.3413 10.4304C27.6112 10.3366 27.8924 10.2898 28.185 10.2898C28.7191 10.2898 29.195 10.4176 29.6126 10.6733C30.033 10.9261 30.3626 11.2727 30.6012 11.7131C30.8427 12.1534 30.9634 12.6562 30.9634 13.2216C30.9634 13.7784 30.8384 14.2756 30.5884 14.7131C30.3413 15.1477 30.0004 15.4915 29.5657 15.7443C29.131 15.9943 28.6367 16.1193 28.0827 16.1193Z" fill="#616E85"/>
<line x1="48" y1="11.5" x2="616" y2="11.5" stroke="#EFF2F5"/>
<path d="M24.9293 46.2102V45.3409L28.7646 39.2727H29.3952V40.6193H28.9691L26.0714 45.2045V45.2727H31.2362V46.2102H24.9293ZM29.0373 48V45.946V45.5412V39.2727H30.043V48H29.0373Z" fill="#616E85"/>
<line x1="48" y1="43.5" x2="616" y2="43.5" stroke="#EFF2F5"/>
<path d="M28.1509 80.1193C27.5884 80.1193 27.087 80.0227 26.6467 79.8295C26.2092 79.6364 25.8612 79.3679 25.6026 79.0241C25.3469 78.6776 25.2077 78.2756 25.185 77.8182H26.2589C26.2816 78.0994 26.3782 78.3423 26.5487 78.5469C26.7191 78.7486 26.9421 78.9048 27.2177 79.0156C27.4933 79.1264 27.7987 79.1818 28.1339 79.1818C28.5089 79.1818 28.8413 79.1165 29.131 78.9858C29.4208 78.8551 29.6481 78.6733 29.8129 78.4403C29.9776 78.2074 30.06 77.9375 30.06 77.6307C30.06 77.3097 29.9805 77.027 29.8214 76.7827C29.6623 76.5355 29.4293 76.3423 29.1225 76.2031C28.8157 76.0639 28.4407 75.9943 27.9975 75.9943H27.2987V75.0568H27.9975C28.3441 75.0568 28.6481 74.9943 28.9094 74.8693C29.1737 74.7443 29.3796 74.5682 29.5273 74.3409C29.6779 74.1136 29.7532 73.8466 29.7532 73.5398C29.7532 73.2443 29.6879 72.9872 29.5572 72.7685C29.4265 72.5497 29.2418 72.3793 29.0032 72.2571C28.7674 72.1349 28.489 72.0739 28.168 72.0739C27.8668 72.0739 27.5827 72.1293 27.3157 72.2401C27.0515 72.348 26.8356 72.5057 26.668 72.7131C26.5004 72.9176 26.4094 73.1648 26.3952 73.4545H25.3725C25.3896 72.9972 25.5273 72.5966 25.7859 72.2528C26.0444 71.9062 26.3825 71.6364 26.8001 71.4432C27.2205 71.25 27.6822 71.1534 28.185 71.1534C28.7248 71.1534 29.1879 71.2628 29.5742 71.4815C29.9606 71.6974 30.2575 71.983 30.4648 72.3381C30.6722 72.6932 30.7759 73.0767 30.7759 73.4886C30.7759 73.9801 30.6467 74.3991 30.3881 74.7457C30.1325 75.0923 29.7844 75.3324 29.3441 75.4659V75.5341C29.8952 75.625 30.3256 75.8594 30.6353 76.2372C30.945 76.6122 31.0998 77.0767 31.0998 77.6307C31.0998 78.1051 30.9705 78.5312 30.712 78.9091C30.4563 79.2841 30.1069 79.5795 29.6637 79.7955C29.2205 80.0114 28.7163 80.1193 28.1509 80.1193Z" fill="#616E85"/>
<line x1="48" y1="75.5" x2="616" y2="75.5" stroke="#EFF2F5"/>
<path d="M25.3896 112V111.233L28.2702 108.08C28.6083 107.71 28.8867 107.389 29.1055 107.116C29.3242 106.841 29.4862 106.582 29.5913 106.341C29.6992 106.097 29.7532 105.841 29.7532 105.574C29.7532 105.267 29.6793 105.001 29.5316 104.777C29.3867 104.553 29.1879 104.379 28.935 104.257C28.6822 104.135 28.3981 104.074 28.0827 104.074C27.7475 104.074 27.4549 104.143 27.2049 104.283C26.9577 104.419 26.766 104.611 26.6296 104.858C26.4961 105.105 26.4293 105.395 26.4293 105.727H25.4237C25.4237 105.216 25.5415 104.767 25.7773 104.381C26.0131 103.994 26.3342 103.693 26.7404 103.477C27.1495 103.261 27.6083 103.153 28.1168 103.153C28.6282 103.153 29.0813 103.261 29.4762 103.477C29.8711 103.693 30.1808 103.984 30.4052 104.351C30.6296 104.717 30.7418 105.125 30.7418 105.574C30.7418 105.895 30.6836 106.209 30.5671 106.516C30.4535 106.82 30.2546 107.159 29.9705 107.534C29.6893 107.906 29.2987 108.361 28.7987 108.898L26.8384 110.994V111.062H30.8952V112H25.3896Z" fill="#616E85"/>
<line x1="48" y1="107.5" x2="616" y2="107.5" stroke="#EFF2F5"/>
<path d="M29.293 135.273V144H28.2362V136.381H28.185L26.0543 137.795V136.722L28.2362 135.273H29.293Z" fill="#616E85"/>
<line x1="48" y1="139.5" x2="616" y2="139.5" stroke="#EFF2F5"/>
<path d="M69.0268 156H67.9188L71.1233 147.273H72.2143L75.4188 156H74.3108L71.7029 148.653H71.6347L69.0268 156ZM69.4358 152.591H73.9018V153.528H69.4358V152.591Z" fill="#616E85"/>
<path d="M116.155 156V147.273H119.206C119.814 147.273 120.315 147.378 120.71 147.588C121.105 147.795 121.399 148.075 121.592 148.428C121.785 148.777 121.882 149.165 121.882 149.591C121.882 149.966 121.815 150.276 121.682 150.52C121.551 150.764 121.378 150.957 121.162 151.099C120.949 151.241 120.717 151.347 120.467 151.415V151.5C120.734 151.517 121.003 151.611 121.272 151.781C121.542 151.952 121.768 152.196 121.95 152.514C122.132 152.832 122.223 153.222 122.223 153.682C122.223 154.119 122.123 154.513 121.924 154.862C121.726 155.212 121.412 155.489 120.983 155.693C120.554 155.898 119.995 156 119.308 156H116.155ZM117.211 155.062H119.308C119.998 155.062 120.488 154.929 120.778 154.662C121.071 154.392 121.217 154.065 121.217 153.682C121.217 153.386 121.142 153.114 120.991 152.864C120.841 152.611 120.626 152.409 120.348 152.259C120.069 152.105 119.74 152.028 119.359 152.028H117.211V155.062ZM117.211 151.108H119.172C119.49 151.108 119.777 151.045 120.032 150.92C120.291 150.795 120.495 150.619 120.646 150.392C120.799 150.165 120.876 149.898 120.876 149.591C120.876 149.207 120.743 148.882 120.476 148.615C120.208 148.345 119.785 148.21 119.206 148.21H117.211V151.108Z" fill="#616E85"/>
<path d="M170.048 150H168.991C168.928 149.696 168.819 149.429 168.663 149.199C168.509 148.969 168.322 148.776 168.1 148.619C167.881 148.46 167.639 148.341 167.371 148.261C167.104 148.182 166.826 148.142 166.536 148.142C166.008 148.142 165.529 148.276 165.1 148.543C164.674 148.81 164.335 149.203 164.082 149.723C163.832 150.243 163.707 150.881 163.707 151.636C163.707 152.392 163.832 153.03 164.082 153.55C164.335 154.07 164.674 154.463 165.1 154.73C165.529 154.997 166.008 155.131 166.536 155.131C166.826 155.131 167.104 155.091 167.371 155.011C167.639 154.932 167.881 154.814 168.1 154.658C168.322 154.499 168.509 154.304 168.663 154.074C168.819 153.841 168.928 153.574 168.991 153.273H170.048C169.968 153.719 169.823 154.118 169.613 154.47C169.403 154.822 169.141 155.122 168.829 155.369C168.516 155.614 168.166 155.8 167.776 155.928C167.39 156.055 166.977 156.119 166.536 156.119C165.792 156.119 165.13 155.938 164.55 155.574C163.971 155.21 163.515 154.693 163.183 154.023C162.85 153.352 162.684 152.557 162.684 151.636C162.684 150.716 162.85 149.92 163.183 149.25C163.515 148.58 163.971 148.062 164.55 147.699C165.13 147.335 165.792 147.153 166.536 147.153C166.977 147.153 167.39 147.217 167.776 147.345C168.166 147.473 168.516 147.661 168.829 147.908C169.141 148.152 169.403 148.45 169.613 148.803C169.823 149.152 169.968 149.551 170.048 150Z" fill="#616E85"/>
<path d="M213.104 156H210.411V147.273H213.223C214.07 147.273 214.795 147.447 215.397 147.797C215.999 148.143 216.461 148.642 216.782 149.293C217.103 149.94 217.263 150.716 217.263 151.619C217.263 152.528 217.101 153.311 216.777 153.967C216.454 154.621 215.982 155.124 215.363 155.476C214.743 155.825 213.991 156 213.104 156ZM211.468 155.062H213.036C213.758 155.062 214.356 154.923 214.83 154.645C215.304 154.366 215.658 153.97 215.891 153.456C216.124 152.942 216.241 152.33 216.241 151.619C216.241 150.915 216.125 150.308 215.895 149.8C215.665 149.288 215.321 148.896 214.864 148.624C214.407 148.348 213.837 148.21 213.155 148.21H211.468V155.062Z" fill="#616E85"/>
<path d="M258.471 156V147.273H263.738V148.21H259.528V151.159H263.465V152.097H259.528V155.062H263.806V156H258.471Z" fill="#616E85"/>
<path d="M305.869 156V147.273H311.102V148.21H306.925V151.159H310.71V152.097H306.925V156H305.869Z" fill="#616E85"/>
<path d="M358.23 150C358.137 149.713 358.013 149.456 357.86 149.229C357.709 148.999 357.529 148.803 357.318 148.641C357.111 148.479 356.875 148.355 356.611 148.27C356.347 148.185 356.057 148.142 355.742 148.142C355.225 148.142 354.755 148.276 354.331 148.543C353.908 148.81 353.571 149.203 353.321 149.723C353.071 150.243 352.946 150.881 352.946 151.636C352.946 152.392 353.073 153.03 353.326 153.55C353.578 154.07 353.921 154.463 354.353 154.73C354.784 154.997 355.27 155.131 355.81 155.131C356.31 155.131 356.75 155.024 357.131 154.811C357.515 154.595 357.813 154.291 358.026 153.899C358.242 153.504 358.35 153.04 358.35 152.506L358.674 152.574H356.049V151.636H359.372V152.574C359.372 153.293 359.219 153.918 358.912 154.449C358.608 154.98 358.188 155.392 357.651 155.685C357.117 155.974 356.503 156.119 355.81 156.119C355.037 156.119 354.358 155.938 353.773 155.574C353.191 155.21 352.736 154.693 352.409 154.023C352.086 153.352 351.924 152.557 351.924 151.636C351.924 150.946 352.016 150.325 352.201 149.774C352.388 149.22 352.652 148.749 352.993 148.359C353.334 147.97 353.738 147.672 354.203 147.464C354.669 147.257 355.182 147.153 355.742 147.153C356.202 147.153 356.631 147.223 357.029 147.362C357.429 147.499 357.786 147.693 358.098 147.946C358.414 148.196 358.676 148.496 358.887 148.845C359.097 149.192 359.242 149.577 359.321 150H358.23Z" fill="#616E85"/>
<path d="M399.615 156V147.273H400.672V151.159H405.326V147.273H406.382V156H405.326V152.097H400.672V156H399.615Z" fill="#616E85"/>
<path d="M450.859 147.273V156H449.802V147.273H450.859Z" fill="#616E85"/>
<path d="M498.807 147.273H499.863V153.511C499.863 154.068 499.761 154.541 499.557 154.93C499.352 155.32 499.064 155.615 498.692 155.817C498.319 156.018 497.88 156.119 497.375 156.119C496.897 156.119 496.473 156.033 496.101 155.859C495.728 155.683 495.436 155.433 495.223 155.109C495.01 154.786 494.903 154.401 494.903 153.955H495.943C495.943 154.202 496.004 154.418 496.126 154.602C496.251 154.784 496.422 154.926 496.638 155.028C496.853 155.131 497.099 155.182 497.375 155.182C497.679 155.182 497.937 155.118 498.15 154.99C498.363 154.862 498.525 154.675 498.636 154.428C498.75 154.178 498.807 153.872 498.807 153.511V147.273Z" fill="#616E85"/>
<path d="M542.143 156V147.273H543.2V151.602H543.302L547.222 147.273H548.603L544.938 151.21L548.603 156H547.325L544.291 151.943L543.2 153.17V156H542.143Z" fill="#616E85"/>
<path d="M590.015 156V147.273H591.072V155.062H595.129V156H590.015Z" fill="#616E85"/>
<path d="M64 30C64 26.6863 66.6863 24 70 24H73.3333C76.647 24 79.3333 26.6863 79.3333 30V140H64V30Z" fill="#F18C5C"/>
<path d="M111.333 115C111.333 111.686 114.02 109 117.333 109H120.667C123.98 109 126.667 111.686 126.667 115V140H111.333V115Z" fill="#F18C5C"/>
<path d="M158.667 100C158.667 96.6863 161.353 94 164.667 94H168C171.314 94 174 96.6863 174 100V140H158.667V100Z" fill="#F18C5C"/>
<path d="M206 30C206 26.6863 208.686 24 212 24H215.333C218.647 24 221.333 26.6863 221.333 30V140H206V30Z" fill="#F18C5C"/>
<path d="M253.333 131C253.333 127.686 256.02 125 259.333 125H262.667C265.98 125 268.667 127.686 268.667 131V140H253.333V131Z" fill="#F18C5C"/>
<path d="M300.667 30C300.667 26.6863 303.353 24 306.667 24H310C313.314 24 316 26.6863 316 30V140H300.667V30Z" fill="#F18C5C"/>
<path d="M348 30C348 26.6863 350.686 24 354 24H357.333C360.647 24 363.333 26.6863 363.333 30V140H348V30Z" fill="#F18C5C"/>
<path d="M395.333 115C395.333 111.686 398.02 109 401.333 109H404.667C407.98 109 410.667 111.686 410.667 115V140H395.333V115Z" fill="#F18C5C"/>
<path d="M442.667 100C442.667 96.6863 445.353 94 448.667 94H452C455.314 94 458 96.6863 458 100V140H442.667V100Z" fill="#F18C5C"/>
<path d="M490 30C490 26.6863 492.686 24 496 24H499.333C502.647 24 505.333 26.6863 505.333 30V140H490V30Z" fill="#F18C5C"/>
<path d="M537.333 131C537.333 127.686 540.02 125 543.333 125H546.667C549.98 125 552.667 127.686 552.667 131V140H537.333V131Z" fill="#F18C5C"/>
<path d="M584.667 30C584.667 26.6863 587.353 24 590.667 24H594C597.314 24 600 26.6863 600 30V140H584.667V30Z" fill="#F18C5C"/>
</svg>
