<svg width="640" height="196" viewBox="0 0 640 196" fill="none" xmlns="http://www.w3.org/2000/svg">
<path d="M30.0039 7.27273V16H28.9471V8.38068H28.896L26.7653 9.79545V8.72159L28.9471 7.27273H30.0039ZM36.5973 16.1193C35.9553 16.1193 35.4084 15.9446 34.9567 15.5952C34.505 15.2429 34.1598 14.733 33.9212 14.0653C33.6825 13.3949 33.5632 12.5852 33.5632 11.6364C33.5632 10.6932 33.6825 9.88778 33.9212 9.22017C34.1626 8.54972 34.5092 8.03835 34.9609 7.68608C35.4155 7.33097 35.9609 7.15341 36.5973 7.15341C37.2337 7.15341 37.7777 7.33097 38.2294 7.68608C38.6839 8.03835 39.0305 8.54972 39.2692 9.22017C39.5107 9.88778 39.6314 10.6932 39.6314 11.6364C39.6314 12.5852 39.5121 13.3949 39.2734 14.0653C39.0348 14.733 38.6896 15.2429 38.2379 15.5952C37.7862 15.9446 37.2393 16.1193 36.5973 16.1193ZM36.5973 15.1818C37.2337 15.1818 37.728 14.875 38.0803 14.2614C38.4325 13.6477 38.6087 12.7727 38.6087 11.6364C38.6087 10.8807 38.5277 10.2372 38.3658 9.70597C38.2067 9.17472 37.9766 8.76989 37.6754 8.49148C37.3771 8.21307 37.0178 8.07386 36.5973 8.07386C35.9666 8.07386 35.4737 8.38494 35.1186 9.0071C34.7635 9.62642 34.5859 10.5028 34.5859 11.6364C34.5859 12.392 34.6655 13.0341 34.8246 13.5625C34.9837 14.0909 35.2124 14.4929 35.5107 14.7685C35.8118 15.044 36.174 15.1818 36.5973 15.1818ZM44.3668 16.1193C43.7248 16.1193 43.1779 15.9446 42.7262 15.5952C42.2745 15.2429 41.9293 14.733 41.6907 14.0653C41.4521 13.3949 41.3327 12.5852 41.3327 11.6364C41.3327 10.6932 41.4521 9.88778 41.6907 9.22017C41.9322 8.54972 42.2788 8.03835 42.7305 7.68608C43.185 7.33097 43.7305 7.15341 44.3668 7.15341C45.0032 7.15341 45.5472 7.33097 45.9989 7.68608C46.4535 8.03835 46.8001 8.54972 47.0387 9.22017C47.2802 9.88778 47.4009 10.6932 47.4009 11.6364C47.4009 12.5852 47.2816 13.3949 47.043 14.0653C46.8043 14.733 46.4592 15.2429 46.0075 15.5952C45.5558 15.9446 45.0089 16.1193 44.3668 16.1193ZM44.3668 15.1818C45.0032 15.1818 45.4975 14.875 45.8498 14.2614C46.2021 13.6477 46.3782 12.7727 46.3782 11.6364C46.3782 10.8807 46.2972 10.2372 46.1353 9.70597C45.9762 9.17472 45.7461 8.76989 45.445 8.49148C45.1467 8.21307 44.7873 8.07386 44.3668 8.07386C43.7362 8.07386 43.2433 8.38494 42.8881 9.0071C42.533 9.62642 42.3555 10.5028 42.3555 11.6364C42.3555 12.392 42.435 13.0341 42.5941 13.5625C42.7532 14.0909 42.9819 14.4929 43.2802 14.7685C43.5813 15.044 43.9435 15.1818 44.3668 15.1818ZM53.6023 14.3636V13.9034C53.6023 13.5852 53.6676 13.294 53.7983 13.0298C53.9318 12.7628 54.125 12.5497 54.3778 12.3906C54.6335 12.2287 54.9432 12.1477 55.3068 12.1477C55.6761 12.1477 55.9858 12.2287 56.2358 12.3906C56.4858 12.5497 56.6747 12.7628 56.8026 13.0298C56.9304 13.294 56.9943 13.5852 56.9943 13.9034V14.3636C56.9943 14.6818 56.929 14.9744 56.7983 15.2415C56.6705 15.5057 56.4801 15.7187 56.2273 15.8807C55.9773 16.0398 55.6705 16.1193 55.3068 16.1193C54.9375 16.1193 54.6264 16.0398 54.3736 15.8807C54.1207 15.7187 53.929 15.5057 53.7983 15.2415C53.6676 14.9744 53.6023 14.6818 53.6023 14.3636ZM54.4716 13.9034V14.3636C54.4716 14.6278 54.5341 14.8651 54.6591 15.0753C54.7841 15.2827 55 15.3864 55.3068 15.3864C55.6051 15.3864 55.8153 15.2827 55.9375 15.0753C56.0625 14.8651 56.125 14.6278 56.125 14.3636V13.9034C56.125 13.6392 56.0653 13.4034 55.946 13.196C55.8267 12.9858 55.6136 12.8807 55.3068 12.8807C55.0085 12.8807 54.794 12.9858 54.6634 13.196C54.5355 13.4034 54.4716 13.6392 54.4716 13.9034ZM49.2557 9.36932V8.90909C49.2557 8.59091 49.321 8.29972 49.4517 8.03551C49.5852 7.76847 49.7784 7.5554 50.0312 7.39631C50.2869 7.23437 50.5966 7.15341 50.9602 7.15341C51.3295 7.15341 51.6392 7.23437 51.8892 7.39631C52.1392 7.5554 52.3281 7.76847 52.456 8.03551C52.5838 8.29972 52.6477 8.59091 52.6477 8.90909V9.36932C52.6477 9.6875 52.5824 9.98011 52.4517 10.2472C52.3239 10.5114 52.1335 10.7244 51.8807 10.8864C51.6307 11.0455 51.3239 11.125 50.9602 11.125C50.5909 11.125 50.2798 11.0455 50.027 10.8864C49.7741 10.7244 49.5824 10.5114 49.4517 10.2472C49.321 9.98011 49.2557 9.6875 49.2557 9.36932ZM50.125 8.90909V9.36932C50.125 9.63352 50.1875 9.87074 50.3125 10.081C50.4375 10.2884 50.6534 10.392 50.9602 10.392C51.2585 10.392 51.4688 10.2884 51.5909 10.081C51.7159 9.87074 51.7784 9.63352 51.7784 9.36932V8.90909C51.7784 8.64489 51.7188 8.40909 51.5994 8.2017C51.4801 7.99148 51.267 7.88636 50.9602 7.88636C50.6619 7.88636 50.4474 7.99148 50.3168 8.2017C50.1889 8.40909 50.125 8.64489 50.125 8.90909ZM49.5795 16L55.5795 7.27273H56.5511L50.5511 16H49.5795Z" fill="#616E85"/>
<line x1="74" y1="11.5" x2="616" y2="11.5" stroke="#EFF2F5"/>
<path d="M34.3473 48L38.2507 40.2784V40.2102H33.7507V39.2727H39.3416V40.2614L35.4553 48H34.3473ZM44.3327 48.1193C43.8327 48.1193 43.3825 48.0199 42.9819 47.821C42.5813 47.6222 42.2603 47.3494 42.0188 47.0028C41.7773 46.6562 41.6452 46.2614 41.6225 45.8182H42.6452C42.685 46.2131 42.864 46.5398 43.1822 46.7983C43.5032 47.054 43.8867 47.1818 44.3327 47.1818C44.6907 47.1818 45.0089 47.098 45.2873 46.9304C45.5685 46.7628 45.7887 46.5327 45.9478 46.2401C46.1097 45.9446 46.1907 45.6108 46.1907 45.2386C46.1907 44.858 46.1069 44.5185 45.9393 44.2202C45.7745 43.919 45.5472 43.6818 45.2575 43.5085C44.9677 43.3352 44.6367 43.2472 44.2646 43.2443C43.9975 43.2415 43.7234 43.2827 43.4421 43.3679C43.1609 43.4503 42.9293 43.5568 42.7475 43.6875L41.7589 43.5682L42.2873 39.2727H46.8214V40.2102H43.1737L42.8668 42.7841H42.918C43.0969 42.642 43.3214 42.5241 43.5913 42.4304C43.8612 42.3366 44.1424 42.2898 44.435 42.2898C44.9691 42.2898 45.445 42.4176 45.8626 42.6733C46.283 42.9261 46.6126 43.2727 46.8512 43.7131C47.0927 44.1534 47.2134 44.6562 47.2134 45.2216C47.2134 45.7784 47.0884 46.2756 46.8384 46.7131C46.5913 47.1477 46.2504 47.4915 45.8157 47.7443C45.381 47.9943 44.8867 48.1193 44.3327 48.1193ZM53.6023 46.3636V45.9034C53.6023 45.5852 53.6676 45.294 53.7983 45.0298C53.9318 44.7628 54.125 44.5497 54.3778 44.3906C54.6335 44.2287 54.9432 44.1477 55.3068 44.1477C55.6761 44.1477 55.9858 44.2287 56.2358 44.3906C56.4858 44.5497 56.6747 44.7628 56.8026 45.0298C56.9304 45.294 56.9943 45.5852 56.9943 45.9034V46.3636C56.9943 46.6818 56.929 46.9744 56.7983 47.2415C56.6705 47.5057 56.4801 47.7187 56.2273 47.8807C55.9773 48.0398 55.6705 48.1193 55.3068 48.1193C54.9375 48.1193 54.6264 48.0398 54.3736 47.8807C54.1207 47.7187 53.929 47.5057 53.7983 47.2415C53.6676 46.9744 53.6023 46.6818 53.6023 46.3636ZM54.4716 45.9034V46.3636C54.4716 46.6278 54.5341 46.8651 54.6591 47.0753C54.7841 47.2827 55 47.3864 55.3068 47.3864C55.6051 47.3864 55.8153 47.2827 55.9375 47.0753C56.0625 46.8651 56.125 46.6278 56.125 46.3636V45.9034C56.125 45.6392 56.0653 45.4034 55.946 45.196C55.8267 44.9858 55.6136 44.8807 55.3068 44.8807C55.0085 44.8807 54.794 44.9858 54.6634 45.196C54.5355 45.4034 54.4716 45.6392 54.4716 45.9034ZM49.2557 41.3693V40.9091C49.2557 40.5909 49.321 40.2997 49.4517 40.0355C49.5852 39.7685 49.7784 39.5554 50.0312 39.3963C50.2869 39.2344 50.5966 39.1534 50.9602 39.1534C51.3295 39.1534 51.6392 39.2344 51.8892 39.3963C52.1392 39.5554 52.3281 39.7685 52.456 40.0355C52.5838 40.2997 52.6477 40.5909 52.6477 40.9091V41.3693C52.6477 41.6875 52.5824 41.9801 52.4517 42.2472C52.3239 42.5114 52.1335 42.7244 51.8807 42.8864C51.6307 43.0455 51.3239 43.125 50.9602 43.125C50.5909 43.125 50.2798 43.0455 50.027 42.8864C49.7741 42.7244 49.5824 42.5114 49.4517 42.2472C49.321 41.9801 49.2557 41.6875 49.2557 41.3693ZM50.125 40.9091V41.3693C50.125 41.6335 50.1875 41.8707 50.3125 42.081C50.4375 42.2884 50.6534 42.392 50.9602 42.392C51.2585 42.392 51.4688 42.2884 51.5909 42.081C51.7159 41.8707 51.7784 41.6335 51.7784 41.3693V40.9091C51.7784 40.6449 51.7188 40.4091 51.5994 40.2017C51.4801 39.9915 51.267 39.8864 50.9602 39.8864C50.6619 39.8864 50.4474 39.9915 50.3168 40.2017C50.1889 40.4091 50.125 40.6449 50.125 40.9091ZM49.5795 48L55.5795 39.2727H56.5511L50.5511 48H49.5795Z" fill="#616E85"/>
<line x1="74" y1="43.5" x2="616" y2="43.5" stroke="#EFF2F5"/>
<path d="M36.5632 80.1193C36.0632 80.1193 35.6129 80.0199 35.2124 79.821C34.8118 79.6222 34.4908 79.3494 34.2493 79.0028C34.0078 78.6562 33.8757 78.2614 33.853 77.8182H34.8757C34.9155 78.2131 35.0945 78.5398 35.4126 78.7983C35.7337 79.054 36.1172 79.1818 36.5632 79.1818C36.9212 79.1818 37.2393 79.098 37.5178 78.9304C37.799 78.7628 38.0192 78.5327 38.1783 78.2401C38.3402 77.9446 38.4212 77.6108 38.4212 77.2386C38.4212 76.858 38.3374 76.5185 38.1697 76.2202C38.005 75.919 37.7777 75.6818 37.4879 75.5085C37.1982 75.3352 36.8672 75.2472 36.495 75.2443C36.228 75.2415 35.9538 75.2827 35.6726 75.3679C35.3913 75.4503 35.1598 75.5568 34.978 75.6875L33.9893 75.5682L34.5178 71.2727H39.0518V72.2102H35.4041L35.0973 74.7841H35.1484C35.3274 74.642 35.5518 74.5241 35.8217 74.4304C36.0916 74.3366 36.3729 74.2898 36.6655 74.2898C37.1996 74.2898 37.6754 74.4176 38.093 74.6733C38.5135 74.9261 38.843 75.2727 39.0817 75.7131C39.3232 76.1534 39.4439 76.6562 39.4439 77.2216C39.4439 77.7784 39.3189 78.2756 39.0689 78.7131C38.8217 79.1477 38.4808 79.4915 38.0462 79.7443C37.6115 79.9943 37.1172 80.1193 36.5632 80.1193ZM44.3668 80.1193C43.7248 80.1193 43.1779 79.9446 42.7262 79.5952C42.2745 79.2429 41.9293 78.733 41.6907 78.0653C41.4521 77.3949 41.3327 76.5852 41.3327 75.6364C41.3327 74.6932 41.4521 73.8878 41.6907 73.2202C41.9322 72.5497 42.2788 72.0384 42.7305 71.6861C43.185 71.331 43.7305 71.1534 44.3668 71.1534C45.0032 71.1534 45.5472 71.331 45.9989 71.6861C46.4535 72.0384 46.8001 72.5497 47.0387 73.2202C47.2802 73.8878 47.4009 74.6932 47.4009 75.6364C47.4009 76.5852 47.2816 77.3949 47.043 78.0653C46.8043 78.733 46.4592 79.2429 46.0075 79.5952C45.5558 79.9446 45.0089 80.1193 44.3668 80.1193ZM44.3668 79.1818C45.0032 79.1818 45.4975 78.875 45.8498 78.2614C46.2021 77.6477 46.3782 76.7727 46.3782 75.6364C46.3782 74.8807 46.2972 74.2372 46.1353 73.706C45.9762 73.1747 45.7461 72.7699 45.445 72.4915C45.1467 72.2131 44.7873 72.0739 44.3668 72.0739C43.7362 72.0739 43.2433 72.3849 42.8881 73.0071C42.533 73.6264 42.3555 74.5028 42.3555 75.6364C42.3555 76.392 42.435 77.0341 42.5941 77.5625C42.7532 78.0909 42.9819 78.4929 43.2802 78.7685C43.5813 79.044 43.9435 79.1818 44.3668 79.1818ZM53.6023 78.3636V77.9034C53.6023 77.5852 53.6676 77.294 53.7983 77.0298C53.9318 76.7628 54.125 76.5497 54.3778 76.3906C54.6335 76.2287 54.9432 76.1477 55.3068 76.1477C55.6761 76.1477 55.9858 76.2287 56.2358 76.3906C56.4858 76.5497 56.6747 76.7628 56.8026 77.0298C56.9304 77.294 56.9943 77.5852 56.9943 77.9034V78.3636C56.9943 78.6818 56.929 78.9744 56.7983 79.2415C56.6705 79.5057 56.4801 79.7187 56.2273 79.8807C55.9773 80.0398 55.6705 80.1193 55.3068 80.1193C54.9375 80.1193 54.6264 80.0398 54.3736 79.8807C54.1207 79.7187 53.929 79.5057 53.7983 79.2415C53.6676 78.9744 53.6023 78.6818 53.6023 78.3636ZM54.4716 77.9034V78.3636C54.4716 78.6278 54.5341 78.8651 54.6591 79.0753C54.7841 79.2827 55 79.3864 55.3068 79.3864C55.6051 79.3864 55.8153 79.2827 55.9375 79.0753C56.0625 78.8651 56.125 78.6278 56.125 78.3636V77.9034C56.125 77.6392 56.0653 77.4034 55.946 77.196C55.8267 76.9858 55.6136 76.8807 55.3068 76.8807C55.0085 76.8807 54.794 76.9858 54.6634 77.196C54.5355 77.4034 54.4716 77.6392 54.4716 77.9034ZM49.2557 73.3693V72.9091C49.2557 72.5909 49.321 72.2997 49.4517 72.0355C49.5852 71.7685 49.7784 71.5554 50.0312 71.3963C50.2869 71.2344 50.5966 71.1534 50.9602 71.1534C51.3295 71.1534 51.6392 71.2344 51.8892 71.3963C52.1392 71.5554 52.3281 71.7685 52.456 72.0355C52.5838 72.2997 52.6477 72.5909 52.6477 72.9091V73.3693C52.6477 73.6875 52.5824 73.9801 52.4517 74.2472C52.3239 74.5114 52.1335 74.7244 51.8807 74.8864C51.6307 75.0455 51.3239 75.125 50.9602 75.125C50.5909 75.125 50.2798 75.0455 50.027 74.8864C49.7741 74.7244 49.5824 74.5114 49.4517 74.2472C49.321 73.9801 49.2557 73.6875 49.2557 73.3693ZM50.125 72.9091V73.3693C50.125 73.6335 50.1875 73.8707 50.3125 74.081C50.4375 74.2884 50.6534 74.392 50.9602 74.392C51.2585 74.392 51.4688 74.2884 51.5909 74.081C51.7159 73.8707 51.7784 73.6335 51.7784 73.3693V72.9091C51.7784 72.6449 51.7188 72.4091 51.5994 72.2017C51.4801 71.9915 51.267 71.8864 50.9602 71.8864C50.6619 71.8864 50.4474 71.9915 50.3168 72.2017C50.1889 72.4091 50.125 72.6449 50.125 72.9091ZM49.5795 80L55.5795 71.2727H56.5511L50.5511 80H49.5795Z" fill="#616E85"/>
<line x1="74" y1="75.5" x2="616" y2="75.5" stroke="#EFF2F5"/>
<path d="M33.87 112V111.233L36.7507 108.08C37.0888 107.71 37.3672 107.389 37.5859 107.116C37.8047 106.841 37.9666 106.582 38.0717 106.341C38.1797 106.097 38.2337 105.841 38.2337 105.574C38.2337 105.267 38.1598 105.001 38.0121 104.777C37.8672 104.553 37.6683 104.379 37.4155 104.257C37.1626 104.135 36.8786 104.074 36.5632 104.074C36.228 104.074 35.9354 104.143 35.6854 104.283C35.4382 104.419 35.2464 104.611 35.1101 104.858C34.9766 105.105 34.9098 105.395 34.9098 105.727H33.9041C33.9041 105.216 34.022 104.767 34.2578 104.381C34.4936 103.994 34.8146 103.693 35.2209 103.477C35.63 103.261 36.0888 103.153 36.5973 103.153C37.1087 103.153 37.5618 103.261 37.9567 103.477C38.3516 103.693 38.6612 103.984 38.8857 104.351C39.1101 104.717 39.2223 105.125 39.2223 105.574C39.2223 105.895 39.1641 106.209 39.0476 106.516C38.9339 106.82 38.7351 107.159 38.451 107.534C38.1697 107.906 37.7791 108.361 37.2791 108.898L35.3189 110.994V111.062H39.3757V112H33.87ZM44.3327 112.119C43.8327 112.119 43.3825 112.02 42.9819 111.821C42.5813 111.622 42.2603 111.349 42.0188 111.003C41.7773 110.656 41.6452 110.261 41.6225 109.818H42.6452C42.685 110.213 42.864 110.54 43.1822 110.798C43.5032 111.054 43.8867 111.182 44.3327 111.182C44.6907 111.182 45.0089 111.098 45.2873 110.93C45.5685 110.763 45.7887 110.533 45.9478 110.24C46.1097 109.945 46.1907 109.611 46.1907 109.239C46.1907 108.858 46.1069 108.518 45.9393 108.22C45.7745 107.919 45.5472 107.682 45.2575 107.509C44.9677 107.335 44.6367 107.247 44.2646 107.244C43.9975 107.241 43.7234 107.283 43.4421 107.368C43.1609 107.45 42.9293 107.557 42.7475 107.688L41.7589 107.568L42.2873 103.273H46.8214V104.21H43.1737L42.8668 106.784H42.918C43.0969 106.642 43.3214 106.524 43.5913 106.43C43.8612 106.337 44.1424 106.29 44.435 106.29C44.9691 106.29 45.445 106.418 45.8626 106.673C46.283 106.926 46.6126 107.273 46.8512 107.713C47.0927 108.153 47.2134 108.656 47.2134 109.222C47.2134 109.778 47.0884 110.276 46.8384 110.713C46.5913 111.148 46.2504 111.491 45.8157 111.744C45.381 111.994 44.8867 112.119 44.3327 112.119ZM53.6023 110.364V109.903C53.6023 109.585 53.6676 109.294 53.7983 109.03C53.9318 108.763 54.125 108.55 54.3778 108.391C54.6335 108.229 54.9432 108.148 55.3068 108.148C55.6761 108.148 55.9858 108.229 56.2358 108.391C56.4858 108.55 56.6747 108.763 56.8026 109.03C56.9304 109.294 56.9943 109.585 56.9943 109.903V110.364C56.9943 110.682 56.929 110.974 56.7983 111.241C56.6705 111.506 56.4801 111.719 56.2273 111.881C55.9773 112.04 55.6705 112.119 55.3068 112.119C54.9375 112.119 54.6264 112.04 54.3736 111.881C54.1207 111.719 53.929 111.506 53.7983 111.241C53.6676 110.974 53.6023 110.682 53.6023 110.364ZM54.4716 109.903V110.364C54.4716 110.628 54.5341 110.865 54.6591 111.075C54.7841 111.283 55 111.386 55.3068 111.386C55.6051 111.386 55.8153 111.283 55.9375 111.075C56.0625 110.865 56.125 110.628 56.125 110.364V109.903C56.125 109.639 56.0653 109.403 55.946 109.196C55.8267 108.986 55.6136 108.881 55.3068 108.881C55.0085 108.881 54.794 108.986 54.6634 109.196C54.5355 109.403 54.4716 109.639 54.4716 109.903ZM49.2557 105.369V104.909C49.2557 104.591 49.321 104.3 49.4517 104.036C49.5852 103.768 49.7784 103.555 50.0312 103.396C50.2869 103.234 50.5966 103.153 50.9602 103.153C51.3295 103.153 51.6392 103.234 51.8892 103.396C52.1392 103.555 52.3281 103.768 52.456 104.036C52.5838 104.3 52.6477 104.591 52.6477 104.909V105.369C52.6477 105.687 52.5824 105.98 52.4517 106.247C52.3239 106.511 52.1335 106.724 51.8807 106.886C51.6307 107.045 51.3239 107.125 50.9602 107.125C50.5909 107.125 50.2798 107.045 50.027 106.886C49.7741 106.724 49.5824 106.511 49.4517 106.247C49.321 105.98 49.2557 105.687 49.2557 105.369ZM50.125 104.909V105.369C50.125 105.634 50.1875 105.871 50.3125 106.081C50.4375 106.288 50.6534 106.392 50.9602 106.392C51.2585 106.392 51.4688 106.288 51.5909 106.081C51.7159 105.871 51.7784 105.634 51.7784 105.369V104.909C51.7784 104.645 51.7188 104.409 51.5994 104.202C51.4801 103.991 51.267 103.886 50.9602 103.886C50.6619 103.886 50.4474 103.991 50.3168 104.202C50.1889 104.409 50.125 104.645 50.125 104.909ZM49.5795 112L55.5795 103.273H56.5511L50.5511 112H49.5795Z" fill="#616E85"/>
<line x1="74" y1="107.5" x2="616" y2="107.5" stroke="#EFF2F5"/>
<path d="M54.1168 144.119C53.4748 144.119 52.9279 143.945 52.4762 143.595C52.0245 143.243 51.6793 142.733 51.4407 142.065C51.2021 141.395 51.0827 140.585 51.0827 139.636C51.0827 138.693 51.2021 137.888 51.4407 137.22C51.6822 136.55 52.0288 136.038 52.4805 135.686C52.935 135.331 53.4805 135.153 54.1168 135.153C54.7532 135.153 55.2972 135.331 55.7489 135.686C56.2035 136.038 56.5501 136.55 56.7887 137.22C57.0302 137.888 57.1509 138.693 57.1509 139.636C57.1509 140.585 57.0316 141.395 56.793 142.065C56.5543 142.733 56.2092 143.243 55.7575 143.595C55.3058 143.945 54.7589 144.119 54.1168 144.119ZM54.1168 143.182C54.7532 143.182 55.2475 142.875 55.5998 142.261C55.9521 141.648 56.1282 140.773 56.1282 139.636C56.1282 138.881 56.0472 138.237 55.8853 137.706C55.7262 137.175 55.4961 136.77 55.195 136.491C54.8967 136.213 54.5373 136.074 54.1168 136.074C53.4862 136.074 52.9933 136.385 52.6381 137.007C52.283 137.626 52.1055 138.503 52.1055 139.636C52.1055 140.392 52.185 141.034 52.3441 141.562C52.5032 142.091 52.7319 142.493 53.0302 142.768C53.3313 143.044 53.6935 143.182 54.1168 143.182Z" fill="#616E85"/>
<line x1="74" y1="139.5" x2="616" y2="139.5" stroke="#EFF2F5"/>
<path d="M115.962 156V147.273H117.019V151.602H117.121L121.041 147.273H122.422L118.757 151.21L122.422 156H121.144L118.11 151.943L117.019 153.17V156H115.962ZM123.79 156V147.273H126.739C127.424 147.273 127.983 147.396 128.418 147.643C128.855 147.888 129.179 148.219 129.389 148.636C129.6 149.054 129.705 149.52 129.705 150.034C129.705 150.548 129.6 151.016 129.389 151.436C129.182 151.857 128.861 152.192 128.426 152.442C127.992 152.689 127.435 152.812 126.756 152.812H124.642V151.875H126.722C127.191 151.875 127.567 151.794 127.851 151.632C128.135 151.47 128.341 151.251 128.469 150.976C128.6 150.697 128.665 150.384 128.665 150.034C128.665 149.685 128.6 149.372 128.469 149.097C128.341 148.821 128.134 148.605 127.847 148.449C127.56 148.29 127.179 148.21 126.705 148.21H124.847V156H123.79ZM138.788 147.273V156H137.731V148.381H137.68L135.549 149.795V148.722L137.731 147.273H138.788Z" fill="#616E85"/>
<path d="M224.362 156V147.273H225.419V151.602H225.521L229.441 147.273H230.822L227.157 151.21L230.822 156H229.544L226.51 151.943L225.419 153.17V156H224.362ZM232.19 156V147.273H235.139C235.823 147.273 236.383 147.396 236.818 147.643C237.255 147.888 237.579 148.219 237.789 148.636C238 149.054 238.105 149.52 238.105 150.034C238.105 150.548 238 151.016 237.789 151.436C237.582 151.857 237.261 152.192 236.826 152.442C236.392 152.689 235.835 152.812 235.156 152.812H233.042V151.875H235.122C235.59 151.875 235.967 151.794 236.251 151.632C236.535 151.47 236.741 151.251 236.869 150.976C237 150.697 237.065 150.384 237.065 150.034C237.065 149.685 237 149.372 236.869 149.097C236.741 148.821 236.534 148.605 236.247 148.449C235.96 148.29 235.579 148.21 235.105 148.21H233.247V156H232.19ZM243.284 156V155.233L246.165 152.08C246.503 151.71 246.782 151.389 247 151.116C247.219 150.841 247.381 150.582 247.486 150.341C247.594 150.097 247.648 149.841 247.648 149.574C247.648 149.267 247.574 149.001 247.426 148.777C247.282 148.553 247.083 148.379 246.83 148.257C246.577 148.135 246.293 148.074 245.978 148.074C245.642 148.074 245.35 148.143 245.1 148.283C244.853 148.419 244.661 148.611 244.524 148.858C244.391 149.105 244.324 149.395 244.324 149.727H243.318C243.318 149.216 243.436 148.767 243.672 148.381C243.908 147.994 244.229 147.693 244.635 147.477C245.044 147.261 245.503 147.153 246.012 147.153C246.523 147.153 246.976 147.261 247.371 147.477C247.766 147.693 248.076 147.984 248.3 148.351C248.524 148.717 248.637 149.125 248.637 149.574C248.637 149.895 248.578 150.209 248.462 150.516C248.348 150.82 248.149 151.159 247.865 151.534C247.584 151.906 247.193 152.361 246.693 152.898L244.733 154.994V155.062H248.79V156H243.284Z" fill="#616E85"/>
<path d="M332.762 156V147.273H333.819V151.602H333.921L337.841 147.273H339.222L335.557 151.21L339.222 156H337.944L334.91 151.943L333.819 153.17V156H332.762ZM340.59 156V147.273H343.539C344.224 147.273 344.783 147.396 345.218 147.643C345.655 147.888 345.979 148.219 346.19 148.636C346.4 149.054 346.505 149.52 346.505 150.034C346.505 150.548 346.4 151.016 346.19 151.436C345.982 151.857 345.661 152.192 345.226 152.442C344.792 152.689 344.235 152.812 343.556 152.812H341.442V151.875H343.522C343.991 151.875 344.367 151.794 344.651 151.632C344.935 151.47 345.141 151.251 345.269 150.976C345.4 150.697 345.465 150.384 345.465 150.034C345.465 149.685 345.4 149.372 345.269 149.097C345.141 148.821 344.934 148.605 344.647 148.449C344.36 148.29 343.979 148.21 343.505 148.21H341.647V156H340.59ZM354.446 156.119C353.883 156.119 353.382 156.023 352.942 155.83C352.504 155.636 352.156 155.368 351.898 155.024C351.642 154.678 351.503 154.276 351.48 153.818H352.554C352.577 154.099 352.673 154.342 352.844 154.547C353.014 154.749 353.237 154.905 353.513 155.016C353.788 155.126 354.094 155.182 354.429 155.182C354.804 155.182 355.136 155.116 355.426 154.986C355.716 154.855 355.943 154.673 356.108 154.44C356.273 154.207 356.355 153.938 356.355 153.631C356.355 153.31 356.275 153.027 356.116 152.783C355.957 152.536 355.724 152.342 355.417 152.203C355.111 152.064 354.736 151.994 354.292 151.994H353.594V151.057H354.292C354.639 151.057 354.943 150.994 355.204 150.869C355.469 150.744 355.675 150.568 355.822 150.341C355.973 150.114 356.048 149.847 356.048 149.54C356.048 149.244 355.983 148.987 355.852 148.768C355.721 148.55 355.537 148.379 355.298 148.257C355.062 148.135 354.784 148.074 354.463 148.074C354.162 148.074 353.878 148.129 353.611 148.24C353.346 148.348 353.131 148.506 352.963 148.713C352.795 148.918 352.704 149.165 352.69 149.455H351.667C351.685 148.997 351.822 148.597 352.081 148.253C352.339 147.906 352.677 147.636 353.095 147.443C353.515 147.25 353.977 147.153 354.48 147.153C355.02 147.153 355.483 147.263 355.869 147.482C356.256 147.697 356.552 147.983 356.76 148.338C356.967 148.693 357.071 149.077 357.071 149.489C357.071 149.98 356.942 150.399 356.683 150.746C356.427 151.092 356.079 151.332 355.639 151.466V151.534C356.19 151.625 356.621 151.859 356.93 152.237C357.24 152.612 357.395 153.077 357.395 153.631C357.395 154.105 357.265 154.531 357.007 154.909C356.751 155.284 356.402 155.58 355.959 155.795C355.515 156.011 355.011 156.119 354.446 156.119Z" fill="#616E85"/>
<path d="M441.162 156V147.273H442.219V151.602H442.321L446.241 147.273H447.622L443.957 151.21L447.622 156H446.344L443.31 151.943L442.219 153.17V156H441.162ZM448.99 156V147.273H451.939C452.623 147.273 453.183 147.396 453.618 147.643C454.055 147.888 454.379 148.219 454.589 148.636C454.8 149.054 454.905 149.52 454.905 150.034C454.905 150.548 454.8 151.016 454.589 151.436C454.382 151.857 454.061 152.192 453.626 152.442C453.192 152.689 452.635 152.812 451.956 152.812H449.842V151.875H451.922C452.391 151.875 452.767 151.794 453.051 151.632C453.335 151.47 453.541 151.251 453.669 150.976C453.8 150.697 453.865 150.384 453.865 150.034C453.865 149.685 453.8 149.372 453.669 149.097C453.541 148.821 453.334 148.605 453.047 148.449C452.76 148.29 452.379 148.21 451.905 148.21H450.047V156H448.99ZM459.624 154.21V153.341L463.459 147.273H464.09V148.619H463.664L460.766 153.205V153.273H465.931V154.21H459.624ZM463.732 156V153.946V153.541V147.273H464.738V156H463.732Z" fill="#616E85"/>
<path d="M549.562 156V147.273H550.619V151.602H550.721L554.642 147.273H556.022L552.357 151.21L556.022 156H554.744L551.71 151.943L550.619 153.17V156H549.562ZM557.39 156V147.273H560.339C561.024 147.273 561.583 147.396 562.018 147.643C562.455 147.888 562.779 148.219 562.99 148.636C563.2 149.054 563.305 149.52 563.305 150.034C563.305 150.548 563.2 151.016 562.99 151.436C562.782 151.857 562.461 152.192 562.026 152.442C561.592 152.689 561.035 152.812 560.356 152.812H558.242V151.875H560.322C560.791 151.875 561.167 151.794 561.451 151.632C561.735 151.47 561.941 151.251 562.069 150.976C562.2 150.697 562.265 150.384 562.265 150.034C562.265 149.685 562.2 149.372 562.069 149.097C561.941 148.821 561.734 148.605 561.447 148.449C561.16 148.29 560.779 148.21 560.305 148.21H558.447V156H557.39ZM568.485 156V155.233L571.365 152.08C571.703 151.71 571.982 151.389 572.2 151.116C572.419 150.841 572.581 150.582 572.686 150.341C572.794 150.097 572.848 149.841 572.848 149.574C572.848 149.267 572.774 149.001 572.627 148.777C572.482 148.553 572.283 148.379 572.03 148.257C571.777 148.135 571.493 148.074 571.178 148.074C570.843 148.074 570.55 148.143 570.3 148.283C570.053 148.419 569.861 148.611 569.725 148.858C569.591 149.105 569.524 149.395 569.524 149.727H568.519C568.519 149.216 568.637 148.767 568.872 148.381C569.108 147.994 569.429 147.693 569.835 147.477C570.245 147.261 570.703 147.153 571.212 147.153C571.723 147.153 572.176 147.261 572.571 147.477C572.966 147.693 573.276 147.984 573.5 148.351C573.725 148.717 573.837 149.125 573.837 149.574C573.837 149.895 573.779 150.209 573.662 150.516C573.549 150.82 573.35 151.159 573.066 151.534C572.784 151.906 572.394 152.361 571.894 152.898L569.933 154.994V155.062H573.99V156H568.485Z" fill="#616E85"/>
<path d="M90 30C90 26.6863 92.6863 24 96 24H160.4C163.714 24 166.4 26.6863 166.4 30V140H90V30Z" fill="#5155C3"/>
<path d="M198.4 52C198.4 48.6863 201.086 46 204.4 46H268.8C272.114 46 274.8 48.6863 274.8 52V140H198.4V52Z" fill="#597DBE"/>
<path d="M306.8 115C306.8 111.686 309.486 109 312.8 109H377.2C380.514 109 383.2 111.686 383.2 115V140H306.8V115Z" fill="#5F99BB"/>
<path d="M415.2 66C415.2 62.6863 417.886 60 421.2 60H485.6C488.914 60 491.6 62.6863 491.6 66V140H415.2V66Z" fill="#65B8B7"/>
<path d="M523.6 115C523.6 111.686 526.286 109 529.6 109H594C597.314 109 600 111.686 600 115V140H523.6V115Z" fill="#6CDDB1"/>
<rect x="151" y="182" width="12" height="12" rx="4" fill="#5155C3"/>
<path d="M168.057 192V183.273H169.114V187.602H169.216L173.136 183.273H174.517L170.852 187.21L174.517 192H173.239L170.205 187.943L169.114 189.17V192H168.057ZM175.885 192V183.273H178.834C179.518 183.273 180.078 183.396 180.513 183.643C180.95 183.888 181.274 184.219 181.484 184.636C181.695 185.054 181.8 185.52 181.8 186.034C181.8 186.548 181.695 187.016 181.484 187.436C181.277 187.857 180.956 188.192 180.521 188.442C180.087 188.689 179.53 188.812 178.851 188.812H176.737V187.875H178.817C179.286 187.875 179.662 187.794 179.946 187.632C180.23 187.47 180.436 187.251 180.564 186.976C180.695 186.697 180.76 186.384 180.76 186.034C180.76 185.685 180.695 185.372 180.564 185.097C180.436 184.821 180.229 184.605 179.942 184.449C179.655 184.29 179.274 184.21 178.8 184.21H176.942V192H175.885ZM190.883 183.273V192H189.826V184.381H189.775L187.644 185.795V184.722L189.826 183.273H190.883Z" fill="#222531"/>
<rect x="210" y="182" width="12" height="12" rx="4" fill="#597DBE"/>
<path d="M227.057 192V183.273H228.114V187.602H228.216L232.136 183.273H233.517L229.852 187.21L233.517 192H232.239L229.205 187.943L228.114 189.17V192H227.057ZM234.885 192V183.273H237.834C238.518 183.273 239.078 183.396 239.513 183.643C239.95 183.888 240.274 184.219 240.484 184.636C240.695 185.054 240.8 185.52 240.8 186.034C240.8 186.548 240.695 187.016 240.484 187.436C240.277 187.857 239.956 188.192 239.521 188.442C239.087 188.689 238.53 188.812 237.851 188.812H235.737V187.875H237.817C238.286 187.875 238.662 187.794 238.946 187.632C239.23 187.47 239.436 187.251 239.564 186.976C239.695 186.697 239.76 186.384 239.76 186.034C239.76 185.685 239.695 185.372 239.564 185.097C239.436 184.821 239.229 184.605 238.942 184.449C238.655 184.29 238.274 184.21 237.8 184.21H235.942V192H234.885ZM245.979 192V191.233L248.86 188.08C249.198 187.71 249.477 187.389 249.695 187.116C249.914 186.841 250.076 186.582 250.181 186.341C250.289 186.097 250.343 185.841 250.343 185.574C250.343 185.267 250.269 185.001 250.121 184.777C249.977 184.553 249.778 184.379 249.525 184.257C249.272 184.135 248.988 184.074 248.673 184.074C248.337 184.074 248.045 184.143 247.795 184.283C247.548 184.419 247.356 184.611 247.219 184.858C247.086 185.105 247.019 185.395 247.019 185.727H246.013C246.013 185.216 246.131 184.767 246.367 184.381C246.603 183.994 246.924 183.693 247.33 183.477C247.739 183.261 248.198 183.153 248.707 183.153C249.218 183.153 249.671 183.261 250.066 183.477C250.461 183.693 250.771 183.984 250.995 184.351C251.219 184.717 251.332 185.125 251.332 185.574C251.332 185.895 251.273 186.209 251.157 186.516C251.043 186.82 250.844 187.159 250.56 187.534C250.279 187.906 249.888 188.361 249.388 188.898L247.428 190.994V191.062H251.485V192H245.979Z" fill="#222531"/>
<rect x="269" y="182" width="12" height="12" rx="4" fill="#5F99BB"/>
<path d="M286.057 192V183.273H287.114V187.602H287.216L291.136 183.273H292.517L288.852 187.21L292.517 192H291.239L288.205 187.943L287.114 189.17V192H286.057ZM293.885 192V183.273H296.834C297.518 183.273 298.078 183.396 298.513 183.643C298.95 183.888 299.274 184.219 299.484 184.636C299.695 185.054 299.8 185.52 299.8 186.034C299.8 186.548 299.695 187.016 299.484 187.436C299.277 187.857 298.956 188.192 298.521 188.442C298.087 188.689 297.53 188.812 296.851 188.812H294.737V187.875H296.817C297.286 187.875 297.662 187.794 297.946 187.632C298.23 187.47 298.436 187.251 298.564 186.976C298.695 186.697 298.76 186.384 298.76 186.034C298.76 185.685 298.695 185.372 298.564 185.097C298.436 184.821 298.229 184.605 297.942 184.449C297.655 184.29 297.274 184.21 296.8 184.21H294.942V192H293.885ZM307.741 192.119C307.178 192.119 306.677 192.023 306.237 191.83C305.799 191.636 305.451 191.368 305.192 191.024C304.937 190.678 304.798 190.276 304.775 189.818H305.849C305.871 190.099 305.968 190.342 306.138 190.547C306.309 190.749 306.532 190.905 306.808 191.016C307.083 191.126 307.388 191.182 307.724 191.182C308.099 191.182 308.431 191.116 308.721 190.986C309.011 190.855 309.238 190.673 309.403 190.44C309.567 190.207 309.65 189.938 309.65 189.631C309.65 189.31 309.57 189.027 309.411 188.783C309.252 188.536 309.019 188.342 308.712 188.203C308.406 188.064 308.031 187.994 307.587 187.994H306.888V187.057H307.587C307.934 187.057 308.238 186.994 308.499 186.869C308.763 186.744 308.969 186.568 309.117 186.341C309.268 186.114 309.343 185.847 309.343 185.54C309.343 185.244 309.278 184.987 309.147 184.768C309.016 184.55 308.832 184.379 308.593 184.257C308.357 184.135 308.079 184.074 307.758 184.074C307.457 184.074 307.173 184.129 306.906 184.24C306.641 184.348 306.425 184.506 306.258 184.713C306.09 184.918 305.999 185.165 305.985 185.455H304.962C304.979 184.997 305.117 184.597 305.376 184.253C305.634 183.906 305.972 183.636 306.39 183.443C306.81 183.25 307.272 183.153 307.775 183.153C308.315 183.153 308.778 183.263 309.164 183.482C309.55 183.697 309.847 183.983 310.055 184.338C310.262 184.693 310.366 185.077 310.366 185.489C310.366 185.98 310.237 186.399 309.978 186.746C309.722 187.092 309.374 187.332 308.934 187.466V187.534C309.485 187.625 309.915 187.859 310.225 188.237C310.535 188.612 310.69 189.077 310.69 189.631C310.69 190.105 310.56 190.531 310.302 190.909C310.046 191.284 309.697 191.58 309.254 191.795C308.81 192.011 308.306 192.119 307.741 192.119Z" fill="#222531"/>
<rect x="328" y="182" width="12" height="12" rx="4" fill="#65B8B7"/>
<path d="M345.057 192V183.273H346.114V187.602H346.216L350.136 183.273H351.517L347.852 187.21L351.517 192H350.239L347.205 187.943L346.114 189.17V192H345.057ZM352.885 192V183.273H355.834C356.518 183.273 357.078 183.396 357.513 183.643C357.95 183.888 358.274 184.219 358.484 184.636C358.695 185.054 358.8 185.52 358.8 186.034C358.8 186.548 358.695 187.016 358.484 187.436C358.277 187.857 357.956 188.192 357.521 188.442C357.087 188.689 356.53 188.812 355.851 188.812H353.737V187.875H355.817C356.286 187.875 356.662 187.794 356.946 187.632C357.23 187.47 357.436 187.251 357.564 186.976C357.695 186.697 357.76 186.384 357.76 186.034C357.76 185.685 357.695 185.372 357.564 185.097C357.436 184.821 357.229 184.605 356.942 184.449C356.655 184.29 356.274 184.21 355.8 184.21H353.942V192H352.885ZM363.519 190.21V189.341L367.354 183.273H367.985V184.619H367.559L364.661 189.205V189.273H369.826V190.21H363.519ZM367.627 192V189.946V189.541V183.273H368.633V192H367.627Z" fill="#222531"/>
<rect x="387" y="182" width="12" height="12" rx="4" fill="#6CDDB1"/>
<path d="M404.057 192V183.273H405.114V187.602H405.216L409.136 183.273H410.517L406.852 187.21L410.517 192H409.239L406.205 187.943L405.114 189.17V192H404.057ZM411.885 192V183.273H414.834C415.518 183.273 416.078 183.396 416.513 183.643C416.95 183.888 417.274 184.219 417.484 184.636C417.695 185.054 417.8 185.52 417.8 186.034C417.8 186.548 417.695 187.016 417.484 187.436C417.277 187.857 416.956 188.192 416.521 188.442C416.087 188.689 415.53 188.812 414.851 188.812H412.737V187.875H414.817C415.286 187.875 415.662 187.794 415.946 187.632C416.23 187.47 416.436 187.251 416.564 186.976C416.695 186.697 416.76 186.384 416.76 186.034C416.76 185.685 416.695 185.372 416.564 185.097C416.436 184.821 416.229 184.605 415.942 184.449C415.655 184.29 415.274 184.21 414.8 184.21H412.942V192H411.885ZM425.673 192.119C425.173 192.119 424.722 192.02 424.322 191.821C423.921 191.622 423.6 191.349 423.359 191.003C423.117 190.656 422.985 190.261 422.962 189.818H423.985C424.025 190.213 424.204 190.54 424.522 190.798C424.843 191.054 425.227 191.182 425.673 191.182C426.031 191.182 426.349 191.098 426.627 190.93C426.908 190.763 427.129 190.533 427.288 190.24C427.45 189.945 427.531 189.611 427.531 189.239C427.531 188.858 427.447 188.518 427.279 188.22C427.114 187.919 426.887 187.682 426.597 187.509C426.308 187.335 425.977 187.247 425.604 187.244C425.337 187.241 425.063 187.283 424.782 187.368C424.501 187.45 424.269 187.557 424.087 187.688L423.099 187.568L423.627 183.273H428.161V184.21H424.513L424.207 186.784H424.258C424.437 186.642 424.661 186.524 424.931 186.43C425.201 186.337 425.482 186.29 425.775 186.29C426.309 186.29 426.785 186.418 427.202 186.673C427.623 186.926 427.952 187.273 428.191 187.713C428.433 188.153 428.553 188.656 428.553 189.222C428.553 189.778 428.428 190.276 428.178 190.713C427.931 191.148 427.59 191.491 427.156 191.744C426.721 191.994 426.227 192.119 425.673 192.119Z" fill="#222531"/>
<rect opacity="0.4" x="446" y="182" width="12" height="12" rx="4" fill="#222531"/>
<path opacity="0.4" d="M463.057 192V183.273H464.114V187.602H464.216L468.136 183.273H469.517L465.852 187.21L469.517 192H468.239L465.205 187.943L464.114 189.17V192H463.057ZM470.885 192V183.273H473.834C474.518 183.273 475.078 183.396 475.513 183.643C475.95 183.888 476.274 184.219 476.484 184.636C476.695 185.054 476.8 185.52 476.8 186.034C476.8 186.548 476.695 187.016 476.484 187.436C476.277 187.857 475.956 188.192 475.521 188.442C475.087 188.689 474.53 188.812 473.851 188.812H471.737V187.875H473.817C474.286 187.875 474.662 187.794 474.946 187.632C475.23 187.47 475.436 187.251 475.564 186.976C475.695 186.697 475.76 186.384 475.76 186.034C475.76 185.685 475.695 185.372 475.564 185.097C475.436 184.821 475.229 184.605 474.942 184.449C474.655 184.29 474.274 184.21 473.8 184.21H471.942V192H470.885ZM484.758 192.119C484.4 192.114 484.042 192.045 483.684 191.915C483.326 191.784 482.999 191.564 482.704 191.254C482.408 190.942 482.171 190.52 481.992 189.989C481.813 189.455 481.724 188.784 481.724 187.977C481.724 187.205 481.796 186.52 481.941 185.923C482.086 185.324 482.296 184.82 482.572 184.411C482.847 183.999 483.18 183.686 483.569 183.473C483.961 183.26 484.403 183.153 484.894 183.153C485.383 183.153 485.817 183.251 486.198 183.447C486.582 183.641 486.894 183.911 487.136 184.257C487.377 184.604 487.533 185.003 487.604 185.455H486.565C486.468 185.062 486.281 184.737 486.002 184.479C485.724 184.22 485.354 184.091 484.894 184.091C484.218 184.091 483.685 184.385 483.296 184.973C482.91 185.561 482.715 186.386 482.712 187.449H482.781C482.94 187.207 483.129 187.001 483.347 186.831C483.569 186.658 483.813 186.524 484.08 186.43C484.347 186.337 484.63 186.29 484.928 186.29C485.428 186.29 485.886 186.415 486.3 186.665C486.715 186.912 487.048 187.254 487.298 187.692C487.548 188.126 487.673 188.625 487.673 189.188C487.673 189.727 487.552 190.222 487.31 190.67C487.069 191.116 486.729 191.472 486.292 191.736C485.857 191.997 485.346 192.125 484.758 192.119ZM484.758 191.182C485.116 191.182 485.437 191.092 485.721 190.913C486.008 190.734 486.234 190.494 486.398 190.193C486.566 189.892 486.65 189.557 486.65 189.188C486.65 188.827 486.569 188.499 486.407 188.203C486.248 187.905 486.028 187.668 485.746 187.491C485.468 187.315 485.15 187.227 484.792 187.227C484.522 187.227 484.271 187.281 484.038 187.389C483.805 187.494 483.6 187.639 483.424 187.824C483.251 188.009 483.114 188.22 483.015 188.459C482.915 188.695 482.866 188.943 482.866 189.205C482.866 189.551 482.947 189.875 483.109 190.176C483.273 190.477 483.498 190.72 483.782 190.905C484.069 191.089 484.394 191.182 484.758 191.182Z" fill="#222531"/>
</svg>
