<svg width="304" height="144" viewBox="0 0 304 144" fill="none" xmlns="http://www.w3.org/2000/svg">
<line x1="16" y1="15.5" x2="288" y2="15.5" stroke="#EFF2F5"/>
<line x1="16" y1="31.5" x2="288" y2="31.5" stroke="#EFF2F5"/>
<line x1="16" y1="47.5" x2="288" y2="47.5" stroke="#EFF2F5"/>
<line x1="16" y1="63.5" x2="288" y2="63.5" stroke="#EFF2F5"/>
<line x1="16" y1="79.5" x2="288" y2="79.5" stroke="#EFF2F5"/>
<line x1="16" y1="95.5" x2="288" y2="95.5" stroke="#EFF2F5"/>
<line x1="16" y1="111.5" x2="288" y2="111.5" stroke="#EFF2F5"/>
<line x1="16" y1="127.5" x2="288" y2="127.5" stroke="#EFF2F5"/>
<line x1="16" y1="143.5" x2="288" y2="143.5" stroke="#EFF2F5"/>
<path opacity="0.08" d="M0 0H304V144H16C7.16344 144 0 136.837 0 128V0Z" fill="#F18C5C"/>
<rect y="92" width="304" height="52" fill="#F18C5C"/>
<g clip-path="url(#clip0_22_474)">
<path fill-rule="evenodd" clip-rule="evenodd" d="M304 81.3952L286.419 82.6171C270.792 83.839 235.631 86.2827 202.423 85.0609C169.215 83.839 134.054 78.9515 100.846 75.8968C67.6383 72.2311 32.4771 71.0092 -0.730756 72.8421C-33.9386 74.6749 -69.0998 80.1733 -84.7271 82.6171L-102.308 85.0609V104H-84.7271C-69.0998 104 -33.9386 104 -0.730756 104C32.4771 104 67.6383 104 100.846 104C134.054 104 169.215 104 202.423 104C235.631 104 270.792 104 286.419 104H304V81.3952Z" fill="#F18C5C"/>
<path fill-rule="evenodd" clip-rule="evenodd" d="M304 81.3952L286.419 82.6171C270.792 83.839 235.631 86.2827 202.423 85.0609C169.215 83.839 134.054 78.9515 100.846 75.8968C67.6383 72.2311 32.4771 71.0092 -0.730756 72.8421C-33.9386 74.6749 -69.0998 80.1733 -84.7271 82.6171L-102.308 85.0609V104H-84.7271C-69.0998 104 -33.9386 104 -0.730756 104C32.4771 104 67.6383 104 100.846 104C134.054 104 169.215 104 202.423 104C235.631 104 270.792 104 286.419 104H304V81.3952Z" fill="white" fill-opacity="0.32"/>
<path fill-rule="evenodd" clip-rule="evenodd" d="M406.308 84.6763L392.634 86.2222C378.96 87.7681 351.612 90.8599 324.265 88.541C298.871 86.2222 271.523 78.4927 244.175 77.7197C216.828 76.9468 189.48 83.1304 162.132 82.3574C134.785 81.5845 107.437 73.855 82.043 72.3091C54.6953 70.7632 27.3477 75.4009 13.6739 77.7197L6.48499e-05 80.0386V104H13.6739C27.3477 104 54.6953 104 82.043 104C107.437 104 134.785 104 162.132 104C189.48 104 216.828 104 244.175 104C271.523 104 298.871 104 324.265 104C351.612 104 378.96 104 392.634 104H406.308V84.6763Z" fill="#F18C5C"/>
</g>
<path d="M32.1733 125.239C30.9688 125.239 29.8949 125.017 28.9517 124.574C28.0142 124.131 27.2699 123.52 26.7188 122.741C26.1676 121.963 25.8807 121.071 25.858 120.065H29.4375C29.4773 120.741 29.7614 121.29 30.2898 121.71C30.8182 122.131 31.446 122.341 32.1733 122.341C32.7528 122.341 33.2642 122.213 33.7074 121.957C34.1563 121.696 34.5057 121.335 34.7557 120.875C35.0114 120.409 35.1392 119.875 35.1392 119.273C35.1392 118.659 35.0085 118.119 34.7472 117.653C34.4915 117.187 34.1364 116.824 33.6818 116.562C33.2273 116.301 32.7074 116.168 32.1222 116.162C31.6108 116.162 31.1136 116.267 30.6307 116.477C30.1534 116.687 29.7813 116.974 29.5142 117.338L26.233 116.75L27.0597 107.545H37.7301V110.562H30.1023L29.6506 114.935H29.7528C30.0597 114.503 30.5227 114.145 31.142 113.861C31.7614 113.577 32.4545 113.435 33.2216 113.435C34.2727 113.435 35.2102 113.682 36.0341 114.176C36.858 114.67 37.5085 115.349 37.9858 116.213C38.4631 117.071 38.6989 118.06 38.6932 119.179C38.6989 120.355 38.4261 121.401 37.875 122.315C37.3295 123.224 36.5653 123.94 35.5824 124.463C34.6051 124.98 33.4688 125.239 32.1733 125.239ZM48.3196 107.307C49.2173 107.307 50.081 107.457 50.9105 107.759C51.7457 108.06 52.4901 108.54 53.1435 109.199C53.8026 109.858 54.3224 110.733 54.7031 111.824C55.0895 112.909 55.2855 114.241 55.2912 115.821C55.2912 117.304 55.1236 118.628 54.7884 119.793C54.4588 120.952 53.9844 121.938 53.3651 122.75C52.7457 123.562 51.9986 124.182 51.1236 124.608C50.2486 125.028 49.2713 125.239 48.1918 125.239C47.027 125.239 45.9986 125.014 45.1065 124.565C44.2145 124.111 43.4957 123.494 42.9503 122.716C42.4105 121.932 42.0838 121.051 41.9702 120.074H45.6094C45.7514 120.71 46.0497 121.205 46.5043 121.557C46.9588 121.903 47.5213 122.077 48.1918 122.077C49.3281 122.077 50.1918 121.582 50.7827 120.594C51.3736 119.599 51.6719 118.239 51.6776 116.511H51.5582C51.2969 117.023 50.9446 117.463 50.5014 117.832C50.0582 118.196 49.5497 118.477 48.9759 118.676C48.4077 118.875 47.8026 118.974 47.1605 118.974C46.1321 118.974 45.2145 118.733 44.4077 118.25C43.6009 117.767 42.9645 117.102 42.4986 116.256C42.0327 115.409 41.7997 114.443 41.7997 113.358C41.794 112.188 42.0639 111.145 42.6094 110.23C43.1548 109.315 43.9162 108.599 44.8935 108.082C45.8764 107.56 47.0185 107.301 48.3196 107.307ZM48.3452 110.205C47.7713 110.205 47.2599 110.341 46.8111 110.614C46.3679 110.886 46.0156 111.253 45.7543 111.713C45.4986 112.173 45.3736 112.687 45.3793 113.256C45.3793 113.83 45.5043 114.347 45.7543 114.807C46.0099 115.261 46.3565 115.625 46.794 115.898C47.2372 116.165 47.7429 116.298 48.3111 116.298C48.7372 116.298 49.1321 116.219 49.4957 116.06C49.8594 115.901 50.1747 115.682 50.4418 115.403C50.7145 115.119 50.9276 114.793 51.081 114.423C51.2344 114.054 51.3111 113.662 51.3111 113.247C51.3054 112.696 51.1747 112.19 50.919 111.73C50.6634 111.27 50.3111 110.901 49.8622 110.622C49.4134 110.344 48.9077 110.205 48.3452 110.205ZM62.0966 122.614L62.0028 123.551C61.929 124.301 61.7869 125.048 61.5767 125.793C61.3722 126.543 61.1563 127.222 60.929 127.83C60.7074 128.438 60.5284 128.915 60.392 129.261H58.0398C58.125 128.926 58.2415 128.457 58.3892 127.855C58.5369 127.259 58.6761 126.588 58.8068 125.844C58.9375 125.099 59.0199 124.341 59.054 123.568L59.0966 122.614H62.0966ZM65.0412 121.932V119.026L72.3281 107.545H74.8338V111.568H73.3509L68.7571 118.838V118.974H79.1122V121.932H65.0412ZM73.419 125V121.045L73.4872 119.759V107.545H76.9474V125H73.419ZM83.3736 125L90.6094 110.682V110.562H82.1804V107.545H94.4276V110.605L87.1832 125H83.3736ZM102.961 123.091V122.554C102.961 122.146 103.047 121.772 103.219 121.43C103.395 121.086 103.649 120.811 103.98 120.605C104.315 120.396 104.723 120.292 105.203 120.292C105.69 120.292 106.1 120.395 106.431 120.6C106.766 120.806 107.018 121.081 107.187 121.425C107.359 121.767 107.445 122.143 107.445 122.554V123.091C107.445 123.499 107.359 123.875 107.187 124.219C107.014 124.561 106.761 124.834 106.426 125.04C106.091 125.249 105.684 125.353 105.203 125.353C104.716 125.353 104.307 125.249 103.975 125.04C103.644 124.834 103.392 124.561 103.219 124.219C103.047 123.875 102.961 123.499 102.961 123.091ZM104.408 122.554V123.091C104.408 123.326 104.464 123.548 104.577 123.757C104.693 123.966 104.902 124.07 105.203 124.07C105.505 124.07 105.71 123.968 105.82 123.762C105.932 123.557 105.989 123.333 105.989 123.091V122.554C105.989 122.312 105.936 122.087 105.83 121.878C105.723 121.669 105.515 121.565 105.203 121.565C104.905 121.565 104.698 121.669 104.582 121.878C104.466 122.087 104.408 122.312 104.408 122.554ZM97.7358 117.264V116.727C97.7358 116.316 97.8236 115.94 97.9993 115.599C98.175 115.254 98.4285 114.979 98.7599 114.773C99.0947 114.568 99.4991 114.465 99.973 114.465C100.464 114.465 100.875 114.568 101.206 114.773C101.537 114.979 101.789 115.254 101.962 115.599C102.134 115.94 102.22 116.316 102.22 116.727V117.264C102.22 117.675 102.132 118.051 101.957 118.393C101.784 118.734 101.531 119.008 101.196 119.213C100.865 119.415 100.457 119.516 99.973 119.516C99.4891 119.516 99.0798 119.414 98.745 119.208C98.4136 118.999 98.1617 118.726 97.9893 118.388C97.8203 118.046 97.7358 117.672 97.7358 117.264ZM99.1925 116.727V117.264C99.1925 117.506 99.2488 117.73 99.3615 117.935C99.4775 118.141 99.6813 118.244 99.973 118.244C100.278 118.244 100.485 118.141 100.594 117.935C100.707 117.73 100.763 117.506 100.763 117.264V116.727C100.763 116.485 100.71 116.26 100.604 116.051C100.498 115.842 100.288 115.738 99.973 115.738C99.678 115.738 99.4742 115.844 99.3615 116.056C99.2488 116.268 99.1925 116.492 99.1925 116.727ZM98.392 125L105.392 114.818H106.695L99.6946 125H98.392Z" fill="white"/>
<path d="M236.494 126.139C235.911 126.139 235.386 126.023 234.918 125.791C234.451 125.559 234.076 125.241 233.795 124.837C233.513 124.432 233.359 123.972 233.332 123.455H234.526C234.572 123.915 234.781 124.296 235.152 124.598C235.527 124.896 235.974 125.045 236.494 125.045C236.912 125.045 237.283 124.948 237.608 124.752C237.936 124.557 238.193 124.288 238.379 123.947C238.567 123.602 238.662 123.213 238.662 122.778C238.662 122.334 238.564 121.938 238.369 121.59C238.176 121.239 237.911 120.962 237.573 120.76C237.235 120.558 236.849 120.455 236.415 120.452C236.103 120.448 235.783 120.496 235.455 120.596C235.127 120.692 234.857 120.816 234.645 120.969L233.491 120.83L234.108 115.818H239.398V116.912H235.142L234.784 119.915H234.844C235.053 119.749 235.314 119.612 235.629 119.502C235.944 119.393 236.272 119.338 236.614 119.338C237.237 119.338 237.792 119.487 238.279 119.786C238.77 120.08 239.154 120.485 239.433 120.999C239.714 121.512 239.855 122.099 239.855 122.759C239.855 123.408 239.709 123.988 239.418 124.499C239.129 125.006 238.732 125.407 238.224 125.702C237.717 125.993 237.141 126.139 236.494 126.139ZM245.658 126.139C245.241 126.133 244.823 126.053 244.405 125.901C243.988 125.748 243.607 125.491 243.262 125.13C242.917 124.765 242.64 124.273 242.432 123.653C242.223 123.03 242.118 122.248 242.118 121.307C242.118 120.405 242.203 119.607 242.372 118.911C242.541 118.211 242.786 117.623 243.108 117.146C243.429 116.665 243.817 116.3 244.271 116.052C244.729 115.803 245.244 115.679 245.817 115.679C246.387 115.679 246.894 115.793 247.339 116.022C247.786 116.247 248.151 116.562 248.432 116.967C248.714 117.371 248.896 117.837 248.979 118.364H247.766C247.653 117.906 247.435 117.527 247.11 117.225C246.785 116.924 246.354 116.773 245.817 116.773C245.028 116.773 244.407 117.116 243.953 117.802C243.502 118.488 243.275 119.451 243.272 120.69H243.351C243.537 120.409 243.757 120.168 244.013 119.969C244.271 119.767 244.556 119.612 244.868 119.502C245.179 119.393 245.509 119.338 245.857 119.338C246.44 119.338 246.974 119.484 247.458 119.776C247.942 120.064 248.33 120.463 248.621 120.974C248.913 121.481 249.059 122.062 249.059 122.719C249.059 123.348 248.918 123.925 248.636 124.449C248.354 124.969 247.958 125.384 247.448 125.692C246.941 125.997 246.344 126.146 245.658 126.139ZM245.658 125.045C246.076 125.045 246.45 124.941 246.782 124.732C247.117 124.523 247.38 124.243 247.572 123.892C247.768 123.541 247.866 123.15 247.866 122.719C247.866 122.298 247.771 121.915 247.582 121.57C247.397 121.222 247.14 120.946 246.812 120.74C246.487 120.535 246.116 120.432 245.698 120.432C245.383 120.432 245.09 120.495 244.818 120.621C244.546 120.743 244.308 120.912 244.102 121.128C243.9 121.343 243.741 121.59 243.625 121.869C243.509 122.144 243.451 122.434 243.451 122.739C243.451 123.143 243.545 123.521 243.734 123.872C243.926 124.223 244.188 124.507 244.52 124.722C244.854 124.938 245.234 125.045 245.658 125.045ZM258.6 126.139C257.918 126.139 257.315 126.018 256.791 125.776C256.27 125.531 255.864 125.195 255.573 124.767C255.281 124.336 255.137 123.846 255.14 123.295C255.137 122.865 255.221 122.467 255.394 122.102C255.566 121.734 255.801 121.428 256.1 121.183C256.401 120.934 256.738 120.777 257.109 120.71V120.651C256.622 120.525 256.234 120.251 255.946 119.83C255.657 119.406 255.515 118.924 255.518 118.384C255.515 117.866 255.646 117.404 255.911 116.996C256.176 116.589 256.541 116.267 257.005 116.032C257.472 115.797 258.004 115.679 258.6 115.679C259.19 115.679 259.717 115.797 260.181 116.032C260.645 116.267 261.01 116.589 261.275 116.996C261.544 117.404 261.68 117.866 261.683 118.384C261.68 118.924 261.532 119.406 261.24 119.83C260.952 120.251 260.569 120.525 260.092 120.651V120.71C260.46 120.777 260.791 120.934 261.086 121.183C261.381 121.428 261.617 121.734 261.792 122.102C261.968 122.467 262.057 122.865 262.061 123.295C262.057 123.846 261.908 124.336 261.613 124.767C261.322 125.195 260.916 125.531 260.395 125.776C259.878 126.018 259.28 126.139 258.6 126.139ZM258.6 125.045C259.061 125.045 259.459 124.971 259.794 124.822C260.128 124.673 260.387 124.462 260.569 124.19C260.752 123.919 260.844 123.6 260.848 123.236C260.844 122.851 260.745 122.512 260.549 122.217C260.354 121.922 260.087 121.69 259.749 121.521C259.414 121.352 259.031 121.267 258.6 121.267C258.166 121.267 257.779 121.352 257.437 121.521C257.099 121.69 256.832 121.922 256.637 122.217C256.444 122.512 256.35 122.851 256.353 123.236C256.35 123.6 256.438 123.919 256.617 124.19C256.799 124.462 257.059 124.673 257.397 124.822C257.735 124.971 258.136 125.045 258.6 125.045ZM258.6 120.213C258.965 120.213 259.288 120.14 259.57 119.994C259.855 119.848 260.079 119.645 260.241 119.383C260.404 119.121 260.486 118.814 260.49 118.463C260.486 118.118 260.405 117.818 260.246 117.563C260.087 117.305 259.867 117.106 259.585 116.967C259.303 116.824 258.975 116.753 258.6 116.753C258.219 116.753 257.886 116.824 257.601 116.967C257.316 117.106 257.096 117.305 256.94 117.563C256.784 117.818 256.708 118.118 256.711 118.463C256.708 118.814 256.786 119.121 256.945 119.383C257.107 119.645 257.331 119.848 257.616 119.994C257.901 120.14 258.229 120.213 258.6 120.213ZM267.665 126.139C266.982 126.139 266.379 126.018 265.855 125.776C265.335 125.531 264.929 125.195 264.637 124.767C264.346 124.336 264.201 123.846 264.205 123.295C264.201 122.865 264.286 122.467 264.458 122.102C264.631 121.734 264.866 121.428 265.164 121.183C265.466 120.934 265.802 120.777 266.173 120.71V120.651C265.686 120.525 265.298 120.251 265.01 119.83C264.722 119.406 264.579 118.924 264.583 118.384C264.579 117.866 264.71 117.404 264.975 116.996C265.24 116.589 265.605 116.267 266.069 116.032C266.536 115.797 267.068 115.679 267.665 115.679C268.255 115.679 268.782 115.797 269.246 116.032C269.71 116.267 270.075 116.589 270.34 116.996C270.608 117.404 270.744 117.866 270.747 118.384C270.744 118.924 270.597 119.406 270.305 119.83C270.017 120.251 269.634 120.525 269.156 120.651V120.71C269.524 120.777 269.856 120.934 270.151 121.183C270.446 121.428 270.681 121.734 270.857 122.102C271.032 122.467 271.122 122.865 271.125 123.295C271.122 123.846 270.973 124.336 270.678 124.767C270.386 125.195 269.98 125.531 269.46 125.776C268.943 126.018 268.344 126.139 267.665 126.139ZM267.665 125.045C268.126 125.045 268.523 124.971 268.858 124.822C269.193 124.673 269.451 124.462 269.634 124.19C269.816 123.919 269.909 123.6 269.912 123.236C269.909 122.851 269.809 122.512 269.614 122.217C269.418 121.922 269.151 121.69 268.813 121.521C268.479 121.352 268.096 121.267 267.665 121.267C267.231 121.267 266.843 121.352 266.502 121.521C266.164 121.69 265.897 121.922 265.701 122.217C265.509 122.512 265.414 122.851 265.418 123.236C265.414 123.6 265.502 123.919 265.681 124.19C265.864 124.462 266.124 124.673 266.462 124.822C266.8 124.971 267.201 125.045 267.665 125.045ZM267.665 120.213C268.03 120.213 268.353 120.14 268.634 119.994C268.919 119.848 269.143 119.645 269.306 119.383C269.468 119.121 269.551 118.814 269.554 118.463C269.551 118.118 269.47 117.818 269.311 117.563C269.151 117.305 268.931 117.106 268.649 116.967C268.368 116.824 268.039 116.753 267.665 116.753C267.284 116.753 266.951 116.824 266.666 116.967C266.381 117.106 266.16 117.305 266.004 117.563C265.849 117.818 265.772 118.118 265.776 118.463C265.772 118.814 265.85 119.121 266.009 119.383C266.172 119.645 266.396 119.848 266.681 119.994C266.966 120.14 267.294 120.213 267.665 120.213ZM273.011 123.912V122.898L277.485 115.818H278.221V117.389H277.724L274.343 122.739V122.818H280.369V123.912H273.011ZM277.803 126V123.604V123.131V115.818H278.977V126H277.803Z" fill="white"/>
<path d="M223.333 127V125.667C223.333 124.959 223.052 124.281 222.552 123.781C222.052 123.281 221.374 123 220.667 123H215.333C214.626 123 213.948 123.281 213.448 123.781C212.948 124.281 212.667 124.959 212.667 125.667V127" stroke="white" stroke-linecap="round" stroke-linejoin="round"/>
<path d="M218 120.333C219.473 120.333 220.667 119.139 220.667 117.667C220.667 116.194 219.473 115 218 115C216.527 115 215.333 116.194 215.333 117.667C215.333 119.139 216.527 120.333 218 120.333Z" stroke="white" stroke-linecap="round" stroke-linejoin="round"/>
<path d="M227.333 127V125.667C227.333 125.076 227.136 124.502 226.774 124.035C226.412 123.568 225.905 123.234 225.333 123.087" stroke="white" stroke-linecap="round" stroke-linejoin="round"/>
<path d="M222.667 115.087C223.24 115.234 223.749 115.567 224.112 116.035C224.475 116.503 224.672 117.078 224.672 117.67C224.672 118.262 224.475 118.837 224.112 119.305C223.749 119.773 223.24 120.106 222.667 120.253" stroke="white" stroke-linecap="round" stroke-linejoin="round"/>
<defs>
<clipPath id="clip0_22_474">
<rect width="304" height="24" fill="white" transform="matrix(-1 0 0 1 304 72)"/>
</clipPath>
</defs>
</svg>
